{
  "accessors": [
    {
      "bufferView": 2,
      "componentType": 5126,
      "count": 723,
      "max": [
        1.2116526365280151,
        1.5372776985168457,
        0.2683728337287903
      ],
      "min": [
        0.6749069690704346,
        0.0021510773804038763,
        -0.2683728337287903
      ],
      "type": "VEC3"
    },
    {
      "bufferView": 2,
      "byteOffset": 8676,
      "componentType": 5126,
      "count": 723,
      "max": [
        1.0,
        0.7680872082710266,
        1.0
      ],
      "min": [
        -1.0,
        -0.723188042640686,
        -1.0
      ],
      "type": "VEC3"
    },
    {
      "bufferView": 1,
      "componentType": 5126,
      "count": 723,
      "max": [
        0.5915080904960632,
        0.9988036155700684
      ],
      "min": [
        0.0005819361540488899,
        0.3741018772125244
      ],
      "type": "VEC2"
    },
    {
      "bufferView": 1,
      "byteOffset": 5784,
      "componentType": 5126,
      "count": 723,
      "max": [
        0.5915080904960632,
        0.9988036155700684
      ],
      "min": [
        0.0005819361540488899,
        0.3741018772125244
      ],
      "type": "VEC2"
    },
    {
      "bufferView": 1,
      "byteOffset": 11568,
      "componentType": 5126,
      "count": 723,
      "max": [
        0.5915080904960632,
        0.9988036155700684
      ],
      "min": [
        0.0005819361540488899,
        0.3741018772125244
      ],
      "type": "VEC2"
    },
    {
      "bufferView": 1,
      "byteOffset": 17352,
      "componentType": 5126,
      "count": 723,
      "max": [
        0.5915080904960632,
        0.9988036155700684
      ],
      "min": [
        0.0005819361540488899,
        0.3741018772125244
      ],
      "type": "VEC2"
    },
    {
      "bufferView": 1,
      "byteOffset": 23136,
      "componentType": 5126,
      "count": 723,
      "max": [
        0.5915080904960632,
        0.9988036155700684
      ],
      "min": [
        0.0005819361540488899,
        0.3741018772125244
      ],
      "type": "VEC2"
    },
    {
      "bufferView": 0,
      "componentType": 5125,
      "count": 2640,
      "type": "SCALAR"
    },
    {
      "bufferView": 2,
      "byteOffset": 17352,
      "componentType": 5126,
      "count": 818,
      "max": [
        1.2625720500946045,
        1.7588038444519043,
        0.31929218769073486
      ],
      "min": [
        0.6239875555038452,
        1.5372776985168457,
        -0.31929218769073486
      ],
      "type": "VEC3"
    },
    {
      "bufferView": 2,
      "byteOffset": 27168,
      "componentType": 5126,
      "count": 818,
      "max": [
        1.0,
        1.0,
        1.0
      ],
      "min": [
        -1.0,
        -1.0,
        -1.0
      ],
      "type": "VEC3"
    },
    {
      "bufferView": 1,
      "byteOffset": 28920,
      "componentType": 5126,
      "count": 818,
      "max": [
        0.9101887941360474,
        0.9992985725402832
      ],
      "min": [
        0.0015364338178187609,
        0.0003972053527832031
      ],
      "type": "VEC2"
    },
    {
      "bufferView": 1,
      "byteOffset": 35464,
      "componentType": 5126,
      "count": 818,
      "max": [
        0.9101887941360474,
        0.9992985725402832
      ],
      "min": [
        0.0015364338178187609,
        0.0003972053527832031
      ],
      "type": "VEC2"
    },
    {
      "bufferView": 1,
      "byteOffset": 42008,
      "componentType": 5126,
      "count": 818,
      "max": [
        0.9101887941360474,
        0.9992985725402832
      ],
      "min": [
        0.0015364338178187609,
        0.0003972053527832031
      ],
      "type": "VEC2"
    },
    {
      "bufferView": 1,
      "byteOffset": 48552,
      "componentType": 5126,
      "count": 818,
      "max": [
        0.9101887941360474,
        0.9992985725402832
      ],
      "min": [
        0.0015364338178187609,
        0.0003972053527832031
      ],
      "type": "VEC2"
    },
    {
      "bufferView": 1,
      "byteOffset": 55096,
      "componentType": 5126,
      "count": 818,
      "max": [
        0.9101887941360474,
        0.9992985725402832
      ],
      "min": [
        0.0015364338178187609,
        0.0003972053527832031
      ],
      "type": "VEC2"
    },
    {
      "bufferView": 0,
      "byteOffset": 10560,
      "componentType": 5125,
      "count": 2976,
      "type": "SCALAR"
    },
    {
      "bufferView": 2,
      "byteOffset": 36984,
      "componentType": 5126,
      "count": 1156,
      "max": [
        0.9472004175186157,
        1.4741370677947998,
        0.2504454553127289
      ],
      "min": [
        0.6803732514381409,
        0.46878892183303833,
        -0.003920743241906166
      ],
      "type": "VEC3"
    },
    {
      "bufferView": 2,
      "byteOffset": 50856,
      "componentType": 5126,
      "count": 1156,
      "max": [
        0.9955912232398987,
        1.0,
        0.9951865673065186
      ],
      "min": [
        -0.9992625713348389,
        -1.0,
        -0.9951865673065186
      ],
      "type": "VEC3"
    },
    {
      "bufferView": 1,
      "byteOffset": 61640,
      "componentType": 5126,
      "count": 1156,
      "max": [
        0.8161894083023071,
        0.999250054359436
      ],
      "min": [
        0.0007806372013874352,
        0.17578613758087158
      ],
      "type": "VEC2"
    },
    {
      "bufferView": 1,
      "byteOffset": 70888,
      "componentType": 5126,
      "count": 1156,
      "max": [
        0.8161894083023071,
        0.999250054359436
      ],
      "min": [
        0.0007806372013874352,
        0.17578613758087158
      ],
      "type": "VEC2"
    },
    {
      "bufferView": 1,
      "byteOffset": 80136,
      "componentType": 5126,
      "count": 1156,
      "max": [
        0.8161894083023071,
        0.999250054359436
      ],
      "min": [
        0.0007806372013874352,
        0.17578613758087158
      ],
      "type": "VEC2"
    },
    {
      "bufferView": 1,
      "byteOffset": 89384,
      "componentType": 5126,
      "count": 1156,
      "max": [
        0.8161894083023071,
        0.999250054359436
      ],
      "min": [
        0.0007806372013874352,
        0.17578613758087158
      ],
      "type": "VEC2"
    },
    {
      "bufferView": 1,
      "byteOffset": 98632,
      "componentType": 5126,
      "count": 1156,
      "max": [
        0.8161894083023071,
        0.999250054359436
      ],
      "min": [
        0.0007806372013874352,
        0.17578613758087158
      ],
      "type": "VEC2"
    },
    {
      "bufferView": 0,
      "byteOffset": 22464,
      "componentType": 5125,
      "count": 4056,
      "type": "SCALAR"
    }
  ],
  "asset": {
    "extras": {
      "author": "Pukka Films (https://sketchfab.com/pukkafilms)",
      "license": "CC-BY-4.0 (http://creativecommons.org/licenses/by/4.0/)",
      "source": "https://sketchfab.com/3d-models/royal-mail-post-box-7070a15841b8413c80bf511921757837",
      "title": "Royal Mail Post Box"
    },
    "generator": "Sketchfab-15.66.0",
    "version": "2.0"
  },
  "bufferViews": [
    {
      "buffer": 0,
      "byteLength": 38688,
      "name": "floatBufferViews",
      "target": 34963
    },
    {
      "buffer": 0,
      "byteLength": 107880,
      "byteOffset": 38688,
      "byteStride": 8,
      "name": "floatBufferViews",
      "target": 34962
    },
    {
      "buffer": 0,
      "byteLength": 64728,
      "byteOffset": 146568,
      "byteStride": 12,
      "name": "floatBufferViews",
      "target": 34962
    }
  ],
  "buffers": [
    {
      "byteLength": 211296,
      "uri": "ltf.bin"
    }
  ],
  "extensionsUsed": [
    "KHR_materials_specular"
  ],
  "images": [
    {
      "uri": "textures/Material.001_baseColor.png"
    },
    {
      "uri": "textures/Material.001_metallicRoughness.png"
    }
  ],
  "materials": [
    {
      "doubleSided": true,
      "extensions": {
        "KHR_materials_specular": {
          "specularColorFactor": [
            1.0,
            1.0,
            1.0
          ],
          "specularFactor": 0.363636
        }
      },
      "name": "Material.001",
      "pbrMetallicRoughness": {
        "baseColorTexture": {
          "index": 0
        },
        "metallicRoughnessTexture": {
          "index": 1
        }
      }
    }
  ],
  "meshes": [
    {
      "name": "Object_0",
      "primitives": [
        {
          "attributes": {
            "NORMAL": 1,
            "POSITION": 0,
            "TEXCOORD_0": 2,
            "TEXCOORD_1": 3,
            "TEXCOORD_2": 4,
            "TEXCOORD_3": 5,
            "TEXCOORD_4": 6
          },
          "indices": 7,
          "material": 0,
          "mode": 4
        }
      ]
    },
    {
      "name": "Object_1",
      "primitives": [
        {
          "attributes": {
            "NORMAL": 9,
            "POSITION": 8,
            "TEXCOORD_0": 10,
            "TEXCOORD_1": 11,
            "TEXCOORD_2": 12,
            "TEXCOORD_3": 13,
            "TEXCOORD_4": 14
          },
          "indices": 15,
          "material": 0,
          "mode": 4
        }
      ]
    },
    {
      "name": "Object_2",
      "primitives": [
        {
          "attributes": {
            "NORMAL": 17,
            "POSITION": 16,
            "TEXCOORD_0": 18,
            "TEXCOORD_1": 19,
            "TEXCOORD_2": 20,
            "TEXCOORD_3": 21,
            "TEXCOORD_4": 22
          },
          "indices": 23,
          "material": 0,
          "mode": 4
        }
      ]
    }
  ],
  "nodes": [
    {
      "children": [
        1
      ],
      "matrix": [
        1.0,
        0.0,
        0.0,
        0.0,
        0.0,
        2.220446049250313e-16,
        -1.0,
        0.0,
        0.0,
        1.0,
        2.220446049250313e-16,
        0.0,
        0.0,
        0.0,
        0.0,
        1.0
      ],
      "name": "Sketchfab_model"
    },
    {
      "children": [
        2
      ],
      "name": "root"
    },
    {
      "children": [
        3,
        5,
        7
      ],
      "matrix": [
        1.0,
        0.0,
        0.0,
        0.0,
        0.0,
        2.220446049250313e-16,
        1.0,
        0.0,
        0.0,
        -1.0,
        2.220446049250313e-16,
        0.0,
        0.0,
        0.0,
        0.0,
        1.0
      ],
      "name": "GLTF_SceneRootNode"
    },
    {
      "children": [
        4
      ],
      "name": "body_0"
    },
    {
      "mesh": 0,
      "name": "Object_4"
    },
    {
      "children": [
        6
      ],
      "name": "top_1"
    },
    {
      "mesh": 1,
      "name": "Object_6"
    },
    {
      "children": [
        8
      ],
      "name": "door_2"
    },
    {
      "mesh": 2,
      "name": "Object_8"
    }
  ],
  "samplers": [
    {
      "magFilter": 9729,
      "minFilter": 9987,
      "wrapS": 10497,
      "wrapT": 10497
    }
  ],
  "scene": 0,
  "scenes": [
    {
      "name": "Sketchfab_Scene",
      "nodes": [
        0
      ]
    }
  ],
  "textures": [
    {
      "sampler": 0,
      "source": 0
    },
    {
      "sampler": 0,
      "source": 1
    }
  ]
}
